<?xml version="1.0" encoding="UTF-8"?>
<svg xmlns="http://www.w3.org/2000/svg" xmlns:xlink="http://www.w3.org/1999/xlink" width="30px" height="40px" viewBox="0 0 30 39" version="1.1">
<g id="surface1">
<path style="fill:none;stroke-width:0.3;stroke-linecap:butt;stroke-linejoin:miter;stroke:rgb(0%,0%,0%);stroke-opacity:0.509804;stroke-miterlimit:4;" d="M 652.935938 2.034956 C 661.959375 2.219952 672.607031 0.739984 681.089063 0 L 650.950781 0 C 651.311719 0.554988 652.575 1.84996 652.935938 2.034956 Z M 652.935938 2.034956 " transform="matrix(0.021645,0,0,0.0211153,0,0)"/>
<path style="fill:none;stroke-width:0.3;stroke-linecap:butt;stroke-linejoin:miter;stroke:rgb(0%,0%,0%);stroke-opacity:1;stroke-miterlimit:4;" d="M 652.935938 2.034956 C 616.300781 1.479968 578.402344 8.879808 546.820312 14.799679 C 515.41875 20.719551 486.182813 30.894331 457.849219 39.959135 C 429.696094 48.838942 407.317969 60.678686 379.70625 73.628405 C 352.094531 86.578125 327.370313 101.747796 298.675781 120.802384 C 270.161719 139.671975 242.730469 162.241486 214.216406 188.140925 C 185.882812 214.040365 155.925 247.339643 134.629688 276.754006 C 113.514844 305.983373 94.024219 334.28776 79.045313 363.147135 C 64.246875 391.821514 51.975 417.350962 41.86875 444.360377 C 31.582031 471.554788 24.002344 499.489183 16.061719 532.048478 C 8.121094 564.792768 4.33125 598.462039 1.985156 638.051182 C 1.44375 647.300982 1.082813 658.215745 0 666.910557 L 0 688.0001 C 1.804688 692.070012 0.902344 698.17488 1.082813 702.984776 C 1.082813 708.164663 2.165625 712.789563 1.985156 717.969451 C 0.721875 750.158754 8.121094 780.498097 12.452344 807.692508 C 16.783594 835.071915 26.709375 861.341346 35.010938 890.015725 C 67.495312 855.60647 103.769531 824.342147 136.253906 800.107672 C 168.738281 776.058193 201.222656 754.783654 233.8875 736.839042 C 266.552344 719.079427 296.329688 706.314704 327.73125 693.54998 C 359.132812 680.970252 392.519531 669.130509 427.169531 660.250701 C 462 651.185897 493.7625 642.861078 534.728906 636.75621 C 575.695312 630.651342 621.714844 625.65645 672.065625 626.026442 C 678.742969 624.546474 689.029688 623.621494 698.053125 623.991486 C 707.076563 624.361478 716.280469 623.991486 724.942969 624.916466 C 777.820312 631.021334 830.336719 631.021334 876.717188 641.566106 C 923.097656 652.110877 962.800781 658.585737 1004.308594 673.200421 C 1045.635937 687.815104 1078.661719 700.209836 1116.921094 719.079427 C 1155.180469 738.134014 1192.176563 758.298578 1230.796875 785.307993 C 1269.417188 812.502404 1310.022656 847.281651 1350.086719 890.015725 C 1356.403125 882.060897 1356.583594 873.736078 1359.110156 865.041266 C 1361.636719 856.53145 1363.802344 846.541667 1366.328906 837.291867 C 1368.855469 828.042067 1371.382031 816.38732 1373.186719 806.767528 C 1375.171875 797.147736 1377.517969 786.972957 1378.961719 776.983173 C 1380.225 766.808393 1380.946875 757.003606 1382.571094 746.273838 C 1384.195312 735.544071 1384.55625 723.334335 1384.014844 710.014623 C 1385.639063 710.199619 1384.195312 712.789563 1386 712.974559 L 1386 705.944712 C 1384.375781 701.134816 1384.375781 692.809996 1386 688.0001 L 1386 666.910557 C 1384.195312 657.660757 1384.917188 644.896034 1384.917188 636.016226 C 1380.225 617.516627 1382.751563 596.982071 1378.600781 579.222456 C 1374.630469 561.647837 1373.908594 544.443209 1369.216406 529.828526 C 1364.524219 515.028846 1363.441406 498.009215 1357.666406 482.284555 C 1351.891406 466.3749 1347.379688 452.870192 1341.785156 438.255509 C 1336.190625 423.640825 1330.957031 411.43109 1324.821094 397.741386 C 1318.685156 384.051683 1309.661719 368.512019 1301.901563 354.082332 C 1294.141406 339.652644 1286.38125 326.147937 1277.177344 311.718249 C 1267.973438 297.288562 1255.701563 281.933894 1245.414844 268.244191 C 1235.128125 254.554487 1222.495313 239.014824 1209.140625 224.955128 C 1195.785938 210.710437 1179.724219 192.950821 1165.828125 181.296074 C 1151.751563 169.641326 1137.133594 157.061599 1122.696094 145.221855 C 1108.258594 133.567107 1093.460156 125.427284 1079.744531 115.807492 C 1066.028906 106.1877 1051.771875 97.122897 1037.695312 89.353065 C 1023.61875 81.398237 1008.098438 73.813401 994.202344 67.523538 C 980.30625 61.233674 968.75625 54.94381 953.777344 49.208934 C 938.617969 43.659054 925.985156 38.849159 908.660156 33.854267 C 891.515625 28.859375 876.35625 22.939503 860.655469 19.239583 C 845.135156 15.724659 825.283594 12.394732 808.860938 9.804788 C 792.257812 7.214844 776.7375 3.514924 757.96875 4.069912 C 759.953906 -0.369992 751.832813 4.254908 748.764844 2.77494 C 745.696875 1.294972 739.2 0.92498 735.049219 2.034956 C 729.09375 2.219952 723.860156 0.92498 718.085156 0.92498 C 713.753906 0.92498 708.339844 1.84996 704.910938 0 L 681.089063 0 C 672.607031 0.739984 661.959375 2.219952 652.935938 2.034956 M 1323.016406 789.932893 C 975.253125 498.749199 410.746875 498.934195 62.983594 789.932893 C 26.348438 602.531951 85.542188 404.216246 211.689844 265.839243 C 338.017969 127.277244 508.019531 52.908854 693 52.908854 C 877.980469 53.09385 1047.621094 127.092248 1173.76875 265.284255 C 1299.735938 403.476262 1360.0125 602.531951 1323.016406 789.932893 Z M 1323.016406 789.932893 " transform="matrix(0.021645,0,0,0.0211153,0,0)"/>
<path style="fill:none;stroke-width:0.3;stroke-linecap:butt;stroke-linejoin:miter;stroke:rgb(0%,0%,0%);stroke-opacity:0.709804;stroke-miterlimit:4;" d="M 718.085156 0.92498 C 717.904688 0.92498 718.085156 0 718.085156 0 L 704.910938 0 C 708.339844 1.84996 713.753906 0.92498 718.085156 0.92498 Z M 718.085156 0.92498 " transform="matrix(0.021645,0,0,0.0211153,0,0)"/>
<path style="fill:none;stroke-width:0.3;stroke-linecap:butt;stroke-linejoin:miter;stroke:rgb(0%,0%,0%);stroke-opacity:0.419608;stroke-miterlimit:4;" d="M 718.085156 0.92498 C 723.860156 0.92498 729.09375 2.219952 735.049219 2.034956 C 735.229688 1.84996 735.049219 0.554988 735.049219 0 L 718.085156 0 C 718.085156 0 717.904688 0.92498 718.085156 0.92498 Z M 718.085156 0.92498 " transform="matrix(0.021645,0,0,0.0211153,0,0)"/>
<path style="fill:none;stroke-width:0.3;stroke-linecap:butt;stroke-linejoin:miter;stroke:rgb(88.235295%,0.392157%,0.392157%);stroke-opacity:1;stroke-miterlimit:4;" d="M 1323.016406 789.932893 C 1360.0125 602.531951 1299.735938 403.476262 1173.76875 265.284255 C 1047.621094 127.092248 877.980469 53.09385 693 52.908854 C 508.019531 52.908854 338.017969 127.277244 211.689844 265.839243 C 85.542188 404.216246 26.348438 602.531951 62.983594 789.932893 C 410.746875 498.934195 975.253125 498.749199 1323.016406 789.932893 Z M 1323.016406 789.932893 " transform="matrix(0.021645,0,0,0.0211153,0,0)"/>
<path style="fill:none;stroke-width:0.3;stroke-linecap:butt;stroke-linejoin:miter;stroke:rgb(0%,0%,0%);stroke-opacity:0.509804;stroke-miterlimit:4;" d="M 672.065625 626.026442 C 689.571094 626.026442 708.159375 625.65645 724.942969 624.916466 C 716.280469 623.991486 707.076563 624.361478 698.053125 623.991486 C 689.029688 623.621494 678.742969 624.546474 672.065625 626.026442 Z M 672.065625 626.026442 " transform="matrix(0.021645,0,0,0.0211153,0,0)"/>
<path style="fill:none;stroke-width:0.3;stroke-linecap:butt;stroke-linejoin:miter;stroke:rgb(0%,0%,0%);stroke-opacity:0.529412;stroke-miterlimit:4;" d="M 1386 666.910557 L 1386 638.051182 C 1384.736719 638.051182 1385.097656 636.571214 1384.917188 636.016226 C 1384.917188 644.896034 1384.195312 657.660757 1386 666.910557 Z M 1386 666.910557 " transform="matrix(0.021645,0,0,0.0211153,0,0)"/>
<path style="fill:none;stroke-width:0.3;stroke-linecap:butt;stroke-linejoin:miter;stroke:rgb(0%,0%,0%);stroke-opacity:0.529412;stroke-miterlimit:4;" d="M 0 666.910557 C 1.082813 658.215745 1.44375 647.300982 1.985156 638.051182 C 1.985156 638.236178 0.541406 638.051182 0 638.051182 Z M 0 666.910557 " transform="matrix(0.021645,0,0,0.0211153,0,0)"/>
<path style="fill:none;stroke-width:0.3;stroke-linecap:butt;stroke-linejoin:miter;stroke:rgb(0%,0%,0%);stroke-opacity:0.670588;stroke-miterlimit:4;" d="M 0 702.984776 C 0.541406 702.984776 1.082813 702.984776 1.082813 702.984776 C 0.902344 698.17488 1.804688 692.070012 0 688.0001 Z M 0 702.984776 " transform="matrix(0.021645,0,0,0.0211153,0,0)"/>
<path style="fill:none;stroke-width:0.3;stroke-linecap:butt;stroke-linejoin:miter;stroke:rgb(0%,0%,0%);stroke-opacity:0.611765;stroke-miterlimit:4;" d="M 1386 705.944712 L 1386 688.0001 C 1384.375781 692.809996 1384.375781 701.134816 1386 705.944712 Z M 1386 705.944712 " transform="matrix(0.021645,0,0,0.0211153,0,0)"/>
<path style="fill:none;stroke-width:0.3;stroke-linecap:butt;stroke-linejoin:miter;stroke:rgb(0%,0%,0%);stroke-opacity:1;stroke-miterlimit:4;" d="M 574.071094 1847 L 811.928906 1847 C 811.928906 1679.023638 811.928906 1511.047276 811.928906 1343.070913 C 828.532031 1338.446014 847.48125 1336.226062 863.723438 1331.786158 C 880.146094 1327.346254 896.929688 1322.90635 912.810938 1317.726462 C 928.511719 1312.546575 943.671094 1306.626703 958.830469 1300.706831 C 973.989844 1294.971955 987.885938 1288.127103 1002.323438 1281.282252 C 1016.580469 1274.622396 1029.935156 1267.03756 1043.289844 1259.267728 C 1056.644531 1251.682893 1069.81875 1244.098057 1082.271094 1235.218249 C 1094.723438 1226.523438 1107.35625 1218.56861 1119.267188 1209.31881 C 1131.178125 1200.06901 1142.547656 1190.634215 1153.736719 1180.829427 C 1165.10625 1171.024639 1175.2125 1161.589844 1185.679688 1150.67508 C 1196.327344 1139.945312 1206.975 1129.955529 1216.720313 1118.670773 C 1226.285156 1107.386018 1236.030469 1096.101262 1245.234375 1084.261518 C 1254.438281 1072.421775 1263.28125 1060.027043 1271.763281 1047.632312 C 1280.064844 1035.422576 1288.546875 1021.732873 1295.946094 1008.968149 C 1303.525781 996.203425 1316.158594 980.848758 1305.330469 968.639022 C 1294.502344 956.614283 1288.366406 944.404547 1277.71875 933.304788 C 1267.071094 922.020032 1258.047656 911.47526 1247.219531 900.745493 C 1236.391406 890.015725 1227.367969 881.320913 1216.178906 871.701122 C 1204.989844 862.266326 1196.688281 854.866486 1186.7625 847.651643 C 1176.836719 840.251803 1167.091406 832.111979 1157.8875 826.192107 C 1148.683594 820.08724 1140.382031 813.797376 1130.997656 808.0625 C 1121.432813 802.51262 1113.672656 797.332732 1104.288281 792.152845 C 1094.903906 787.157953 1084.978125 781.423077 1076.315625 777.168169 C 1067.472656 773.098257 1059.532031 768.473357 1050.147656 764.21845 C 1040.94375 759.963542 1032.100781 756.263622 1023.61875 752.748698 C 1015.136719 749.233774 1004.489063 744.608874 995.646094 741.278946 C 986.983594 737.949018 976.516406 734.989083 967.853906 732.029147 C 959.191406 729.254207 947.821875 724.999299 937.174219 722.224359 C 926.707031 719.449419 916.059375 716.304487 905.050781 713.159555 C 894.042188 709.829627 880.867969 709.089643 870.220313 706.684696 C 859.753125 704.279748 849.827344 701.689804 837.735938 699.654848 C 825.644531 697.619892 815.899219 697.064904 801.642188 695.39994 C 787.385156 693.54998 776.917969 692.070012 761.036719 690.960036 C 745.155469 690.035056 722.777344 688.92508 704.910938 688.92508 C 687.225 689.110076 659.974219 688.92508 643.190625 689.85006 C 626.5875 690.590044 613.052344 692.070012 600.058594 693.919972 C 586.884375 695.769932 574.792969 695.029948 562.160156 697.2499 C 549.707813 699.469852 539.421094 701.8748 528.232031 703.72476 C 517.042969 705.759716 505.673438 707.979667 494.303906 710.754607 C 482.934375 713.529547 472.10625 715.934495 461.278125 719.264423 C 450.269531 722.409355 438.719531 725.369291 427.891406 728.884215 C 417.063281 732.399139 407.678906 736.099058 397.753125 739.613982 C 387.827344 743.128906 378.623438 746.273838 369.058594 750.898738 C 359.49375 755.523638 349.026563 757.928586 339.28125 762.36849 C 329.535938 766.808393 321.595313 772.913261 311.308594 777.168169 C 300.841406 781.608073 290.19375 788.637921 280.809375 793.632812 C 271.425 798.627704 262.942969 803.807592 253.739063 809.727464 C 244.535156 815.647336 235.872656 820.642228 226.66875 827.672075 C 217.645313 834.701923 208.441406 839.696815 198.696094 847.466647 C 189.13125 855.236478 180.46875 862.821314 169.279688 872.25611 C 158.090625 881.690905 148.886719 890.570713 138.239063 901.300481 C 127.591406 911.845252 118.3875 922.760016 107.920313 933.859776 C 97.453125 945.144531 90.595313 957.169271 80.308594 969.19401 C 69.841406 981.403746 83.015625 996.943409 90.234375 1009.708133 C 97.453125 1022.657853 106.476562 1035.792568 114.778125 1048.1873 C 123.079688 1060.582031 132.103125 1072.976763 141.307031 1084.816506 C 150.330469 1096.471254 160.075781 1107.941006 169.821094 1119.225761 C 179.385938 1130.510517 190.214063 1140.5003 200.68125 1151.230068 C 211.328906 1162.144832 221.435156 1171.394631 232.804688 1181.199419 C 243.99375 1191.004207 255.363281 1200.439002 267.274219 1209.688802 C 279.185156 1218.938602 291.6375 1227.078425 304.270313 1235.773237 C 316.722656 1244.468049 329.896875 1252.052885 343.251563 1259.63772 C 356.60625 1267.407552 370.141406 1274.992388 384.398438 1281.652244 C 398.475 1288.312099 412.9125 1295.156951 427.891406 1301.076823 C 443.050781 1306.996695 458.210156 1312.731571 473.910938 1318.096454 C 489.792188 1323.276342 506.936719 1327.346254 523.359375 1331.601162 C 539.601562 1336.041066 557.467969 1339.001002 574.071094 1343.070913 C 574.071094 1511.047276 574.071094 1679.023638 574.071094 1847 M 759.953906 1297.006911 C 759.953906 1462.578325 759.953906 1628.334736 759.953906 1794.091146 C 715.378125 1794.091146 670.621875 1794.091146 626.046094 1794.091146 C 626.046094 1628.334736 626.046094 1462.578325 626.046094 1297.006911 C 610.164844 1294.601963 592.478906 1292.936999 576.958594 1289.977063 C 561.61875 1287.017127 545.917969 1283.502204 530.939062 1279.98728 C 516.140625 1276.472356 502.064063 1271.477464 487.9875 1267.03756 C 473.730469 1262.782652 460.375781 1257.602764 446.840625 1252.052885 C 433.485938 1246.503005 420.13125 1240.953125 407.317969 1234.663261 C 394.504688 1228.558393 382.954688 1221.898538 370.682813 1215.238682 C 358.591406 1208.578826 347.402344 1201.363982 335.852344 1194.149139 C 324.482813 1186.749299 314.015625 1178.794471 303.1875 1170.839643 C 292.359375 1162.69982 281.53125 1154.559996 271.244531 1145.680188 C 261.138281 1136.800381 252.114844 1128.105569 242.189063 1118.670773 C 232.44375 1109.420974 223.961719 1100.171174 214.757812 1090.366386 C 205.373438 1080.561599 197.613281 1070.756811 188.770313 1060.212039 C 179.927344 1049.852264 173.069531 1038.752504 164.226562 1027.83774 C 155.383594 1016.737981 151.954688 1005.268229 142.209375 993.798478 C 132.464063 982.14373 143.653125 971.04397 153.217969 961.239183 C 162.963281 951.619391 170.723438 942.184595 180.829688 932.7498 C 190.755469 923.315004 200.500781 914.620192 210.7875 905.740385 C 221.074219 896.860577 231.360938 889.275741 242.008594 881.135917 C 252.836719 872.811098 263.664844 865.596254 275.214844 858.196414 C 286.764844 850.796575 297.953906 843.766727 310.045313 837.106871 C 322.317188 830.262019 334.95 823.787159 347.763281 817.682292 C 360.396094 811.577424 372.848438 805.657552 386.203125 800.292668 C 399.557813 794.742788 412.9125 789.562901 426.989063 784.938001 C 441.065625 780.313101 454.420313 775.318209 469.21875 771.248297 C 484.017188 767.178385 499.717969 763.663462 515.057813 759.963542 C 530.397656 756.448618 545.917969 754.04367 561.979688 751.083734 C 578.041406 747.938802 595.185938 747.383814 611.969531 744.978866 C 628.753125 742.573918 647.341406 743.128906 665.027344 742.01893 C 682.532813 740.908954 702.384375 741.09395 720.070312 742.01893 C 737.575781 742.94391 756.344531 742.573918 773.128125 744.978866 C 789.911719 747.383814 806.875781 748.123798 822.9375 751.083734 C 839.179688 753.858674 854.7 756.263622 870.039844 759.963542 C 885.379688 763.663462 901.260938 766.808393 916.059375 771.063301 C 930.677344 775.133213 944.2125 780.128105 958.289063 784.753005 C 972.365625 789.377905 985.720313 794.372796 999.075 799.922676 C 1012.429688 805.472556 1025.0625 811.207432 1037.695312 817.3123 C 1050.328125 823.417167 1062.960938 830.077023 1075.232813 836.736879 C 1087.504688 843.581731 1098.69375 850.611579 1110.24375 857.826422 C 1121.79375 865.041266 1132.441406 872.626102 1143.269531 880.765925 C 1154.097656 888.720753 1164.745313 896.120593 1174.671094 905.185397 C 1184.777344 914.435196 1195.064063 922.760016 1204.809375 932.194812 C 1214.374219 941.814603 1222.85625 951.064403 1232.240625 960.684195 C 1241.625 970.488982 1253.716406 981.588742 1244.151563 993.24349 C 1234.767188 1004.898237 1230.977344 1016.182993 1222.314844 1027.282752 C 1213.471875 1038.382512 1206.253125 1049.11228 1197.771094 1059.842047 C 1189.108594 1070.386819 1180.807031 1079.821615 1171.783594 1089.811398 C 1162.579688 1099.801182 1153.917188 1108.68099 1144.171875 1118.300781 C 1134.607031 1127.920573 1125.583594 1136.430389 1115.296875 1145.310196 C 1105.010156 1154.005008 1094.182031 1162.144832 1083.353906 1170.284655 C 1072.525781 1178.424479 1062.239063 1186.379307 1050.689063 1193.779147 C 1039.319531 1201.178986 1027.95 1208.023838 1015.858594 1214.86869 C 1003.947656 1221.713542 992.036719 1228.003405 979.223438 1234.293269 C 966.590625 1240.583133 953.416406 1246.318009 939.88125 1251.867889 C 926.526563 1257.417768 913.171875 1262.41266 898.914844 1267.03756 C 884.838281 1271.477464 870.761719 1276.102364 855.963281 1279.98728 C 840.984375 1283.6872 825.283594 1286.647135 809.763281 1289.792067 C 794.242969 1292.936999 775.835156 1294.601963 759.953906 1297.006911 Z M 759.953906 1297.006911 " transform="matrix(0.021645,0,0,0.0211153,0,0)"/>
<path style="fill:none;stroke-width:0.3;stroke-linecap:butt;stroke-linejoin:miter;stroke:rgb(0%,0%,0%);stroke-opacity:0.419608;stroke-miterlimit:4;" d="M 0 717.044471 C 0.360938 717.044471 1.804688 717.599459 1.985156 717.969451 C 2.165625 712.789563 1.082813 708.164663 1.082813 702.984776 C 1.082813 702.984776 0.541406 702.984776 0 702.984776 Z M 0 717.044471 " transform="matrix(0.021645,0,0,0.0211153,0,0)"/>
<path style="fill:none;stroke-width:0.3;stroke-linecap:butt;stroke-linejoin:miter;stroke:rgb(99.607843%,99.607843%,99.607843%);stroke-opacity:1;stroke-miterlimit:4;" d="M 759.953906 1297.006911 C 775.835156 1294.601963 794.242969 1292.936999 809.763281 1289.792067 C 825.283594 1286.647135 840.984375 1283.6872 855.963281 1279.98728 C 870.761719 1276.102364 884.838281 1271.477464 898.914844 1267.03756 C 913.171875 1262.41266 926.526563 1257.417768 939.88125 1251.867889 C 953.416406 1246.318009 966.590625 1240.583133 979.223438 1234.293269 C 992.036719 1228.003405 1003.947656 1221.713542 1015.858594 1214.86869 C 1027.95 1208.023838 1039.319531 1201.178986 1050.689063 1193.779147 C 1062.239063 1186.379307 1072.525781 1178.424479 1083.353906 1170.284655 C 1094.182031 1162.144832 1105.010156 1154.005008 1115.296875 1145.310196 C 1125.583594 1136.430389 1134.607031 1127.920573 1144.171875 1118.300781 C 1153.917188 1108.68099 1162.579688 1099.801182 1171.783594 1089.811398 C 1180.807031 1079.821615 1189.108594 1070.386819 1197.771094 1059.842047 C 1206.253125 1049.11228 1213.471875 1038.382512 1222.314844 1027.282752 C 1230.977344 1016.182993 1234.767188 1004.898237 1244.151563 993.24349 C 1253.716406 981.588742 1241.625 970.488982 1232.240625 960.684195 C 1222.85625 951.064403 1214.374219 941.814603 1204.809375 932.194812 C 1195.064063 922.760016 1184.777344 914.435196 1174.671094 905.185397 C 1164.745313 896.120593 1154.097656 888.720753 1143.269531 880.765925 C 1132.441406 872.626102 1121.79375 865.041266 1110.24375 857.826422 C 1098.69375 850.611579 1087.504688 843.581731 1075.232813 836.736879 C 1062.960938 830.077023 1050.328125 823.417167 1037.695312 817.3123 C 1025.0625 811.207432 1012.429688 805.472556 999.075 799.922676 C 985.720313 794.372796 972.365625 789.377905 958.289063 784.753005 C 944.2125 780.128105 930.677344 775.133213 916.059375 771.063301 C 901.260938 766.808393 885.379688 763.663462 870.039844 759.963542 C 854.7 756.263622 839.179688 753.858674 822.9375 751.083734 C 806.875781 748.123798 789.911719 747.383814 773.128125 744.978866 C 756.344531 742.573918 737.575781 742.94391 720.070312 742.01893 C 702.384375 741.09395 682.532813 740.908954 665.027344 742.01893 C 647.341406 743.128906 628.753125 742.573918 611.969531 744.978866 C 595.185938 747.383814 578.041406 747.938802 561.979688 751.083734 C 545.917969 754.04367 530.397656 756.448618 515.057813 759.963542 C 499.717969 763.663462 484.017188 767.178385 469.21875 771.248297 C 454.420313 775.318209 441.065625 780.313101 426.989063 784.938001 C 412.9125 789.562901 399.557813 794.742788 386.203125 800.292668 C 372.848438 805.657552 360.396094 811.577424 347.763281 817.682292 C 334.95 823.787159 322.317188 830.262019 310.045313 837.106871 C 297.953906 843.766727 286.764844 850.796575 275.214844 858.196414 C 263.664844 865.596254 252.836719 872.811098 242.008594 881.135917 C 231.360938 889.275741 221.074219 896.860577 210.7875 905.740385 C 200.500781 914.620192 190.755469 923.315004 180.829688 932.7498 C 170.723438 942.184595 162.963281 951.619391 153.217969 961.239183 C 143.653125 971.04397 132.464063 982.14373 142.209375 993.798478 C 151.954688 1005.268229 155.383594 1016.737981 164.226562 1027.83774 C 173.069531 1038.752504 179.927344 1049.852264 188.770313 1060.212039 C 197.613281 1070.756811 205.373438 1080.561599 214.757812 1090.366386 C 223.961719 1100.171174 232.44375 1109.420974 242.189063 1118.670773 C 252.114844 1128.105569 261.138281 1136.800381 271.244531 1145.680188 C 281.53125 1154.559996 292.359375 1162.69982 303.1875 1170.839643 C 314.015625 1178.794471 324.482813 1186.749299 335.852344 1194.149139 C 347.402344 1201.363982 358.591406 1208.578826 370.682813 1215.238682 C 382.954688 1221.898538 394.504688 1228.558393 407.317969 1234.663261 C 420.13125 1240.953125 433.485938 1246.503005 446.840625 1252.052885 C 460.375781 1257.602764 473.730469 1262.782652 487.9875 1267.03756 C 502.064063 1271.477464 516.140625 1276.472356 530.939062 1279.98728 C 545.917969 1283.502204 561.61875 1287.017127 576.958594 1289.977063 C 592.478906 1292.936999 610.164844 1294.601963 626.046094 1297.006911 C 626.046094 1462.578325 626.046094 1628.334736 626.046094 1794.091146 C 670.621875 1794.091146 715.378125 1794.091146 759.953906 1794.091146 C 759.953906 1628.334736 759.953906 1462.578325 759.953906 1297.006911 Z M 759.953906 1297.006911 " transform="matrix(0.021645,0,0,0.0211153,0,0)"/>
<path style=" stroke:none;fill-rule:nonzero;fill:rgb(0%,0%,0%);fill-opacity:0.509804;" d="M 14.132812 0.0429688 C 14.328125 0.046875 14.558594 0.015625 14.742188 0 L 14.089844 0 C 14.097656 0.0117188 14.125 0.0390625 14.132812 0.0429688 Z M 14.132812 0.0429688 "/>
<path style=" stroke:none;fill-rule:nonzero;fill:rgb(0%,0%,0%);fill-opacity:1;" d="M 14.132812 0.0429688 C 13.339844 0.03125 12.519531 0.1875 11.835938 0.3125 C 11.15625 0.4375 10.523438 0.652344 9.910156 0.84375 C 9.300781 1.03125 8.816406 1.28125 8.21875 1.554688 C 7.621094 1.828125 7.085938 2.148438 6.464844 2.550781 C 5.847656 2.949219 5.253906 3.425781 4.636719 3.972656 C 4.023438 4.519531 3.375 5.222656 2.914062 5.84375 C 2.457031 6.460938 2.035156 7.058594 1.710938 7.667969 C 1.390625 8.273438 1.125 8.8125 0.90625 9.382812 C 0.683594 9.957031 0.519531 10.546875 0.347656 11.234375 C 0.175781 11.925781 0.09375 12.636719 0.0429688 13.472656 C 0.03125 13.667969 0.0234375 13.898438 0 14.082031 L 0 14.527344 C 0.0390625 14.613281 0.0195312 14.742188 0.0234375 14.84375 C 0.0234375 14.953125 0.046875 15.050781 0.0429688 15.160156 C 0.015625 15.839844 0.175781 16.480469 0.269531 17.054688 C 0.363281 17.632812 0.578125 18.1875 0.757812 18.792969 C 1.460938 18.066406 2.246094 17.40625 2.949219 16.894531 C 3.652344 16.386719 4.355469 15.9375 5.0625 15.558594 C 5.769531 15.183594 6.414062 14.914062 7.09375 14.644531 C 7.773438 14.378906 8.496094 14.128906 9.246094 13.941406 C 10 13.75 10.6875 13.574219 11.574219 13.445312 C 12.460938 13.316406 13.457031 13.210938 14.546875 13.21875 C 14.691406 13.1875 14.914062 13.167969 15.109375 13.175781 C 15.304688 13.183594 15.503906 13.175781 15.691406 13.195312 C 16.835938 13.324219 17.972656 13.324219 18.976562 13.546875 C 19.980469 13.769531 20.839844 13.90625 21.738281 14.214844 C 22.632812 14.523438 23.347656 14.785156 24.175781 15.183594 C 25.003906 15.585938 25.804688 16.011719 26.640625 16.582031 C 27.476562 17.15625 28.355469 17.890625 29.222656 18.792969 C 29.359375 18.625 29.363281 18.449219 29.417969 18.265625 C 29.472656 18.085938 29.519531 17.875 29.574219 17.679688 C 29.628906 17.484375 29.683594 17.238281 29.722656 17.035156 C 29.765625 16.832031 29.816406 16.617188 29.847656 16.40625 C 29.875 16.191406 29.890625 15.984375 29.925781 15.757812 C 29.960938 15.53125 29.96875 15.273438 29.957031 14.992188 C 29.992188 14.996094 29.960938 15.050781 30 15.054688 L 30 14.90625 C 29.964844 14.804688 29.964844 14.628906 30 14.527344 L 30 14.082031 C 29.960938 13.886719 29.976562 13.617188 29.976562 13.429688 C 29.875 13.039062 29.929688 12.605469 29.839844 12.230469 C 29.753906 11.859375 29.738281 11.496094 29.636719 11.1875 C 29.535156 10.875 29.511719 10.515625 29.386719 10.183594 C 29.261719 9.847656 29.164062 9.5625 29.042969 9.253906 C 28.921875 8.945312 28.808594 8.6875 28.675781 8.398438 C 28.542969 8.109375 28.347656 7.78125 28.179688 7.476562 C 28.011719 7.171875 27.84375 6.886719 27.644531 6.582031 C 27.445312 6.277344 27.179688 5.953125 26.957031 5.664062 C 26.734375 5.375 26.460938 5.046875 26.171875 4.75 C 25.882812 4.449219 25.535156 4.074219 25.234375 3.828125 C 24.929688 3.582031 24.613281 3.316406 24.300781 3.066406 C 23.988281 2.820312 23.667969 2.648438 23.371094 2.445312 C 23.074219 2.242188 22.765625 2.050781 22.460938 1.886719 C 22.15625 1.71875 21.820312 1.558594 21.519531 1.425781 C 21.21875 1.292969 20.96875 1.160156 20.644531 1.039062 C 20.316406 0.921875 20.042969 0.820312 19.667969 0.714844 C 19.296875 0.609375 18.96875 0.484375 18.628906 0.40625 C 18.292969 0.332031 17.863281 0.261719 17.507812 0.207031 C 17.148438 0.152344 16.8125 0.0742188 16.40625 0.0859375 C 16.449219 -0.0078125 16.273438 0.0898438 16.207031 0.0585938 C 16.140625 0.0273438 16 0.0195312 15.910156 0.0429688 C 15.78125 0.046875 15.667969 0.0195312 15.542969 0.0195312 C 15.449219 0.0195312 15.332031 0.0390625 15.257812 0 L 14.742188 0 C 14.558594 0.015625 14.328125 0.046875 14.132812 0.0429688 M 28.636719 16.679688 C 21.109375 10.53125 8.890625 10.535156 1.363281 16.679688 C 0.570312 12.722656 1.851562 8.535156 4.582031 5.613281 C 7.316406 2.6875 10.996094 1.117188 15 1.117188 C 19.003906 1.121094 22.675781 2.683594 25.40625 5.601562 C 28.132812 8.519531 29.4375 12.722656 28.636719 16.679688 Z M 28.636719 16.679688 "/>
<path style=" stroke:none;fill-rule:nonzero;fill:rgb(0%,0%,0%);fill-opacity:0.709804;" d="M 15.542969 0.0195312 C 15.539062 0.0195312 15.542969 0 15.542969 0 L 15.257812 0 C 15.332031 0.0390625 15.449219 0.0195312 15.542969 0.0195312 Z M 15.542969 0.0195312 "/>
<path style=" stroke:none;fill-rule:nonzero;fill:rgb(0%,0%,0%);fill-opacity:0.419608;" d="M 15.542969 0.0195312 C 15.667969 0.0195312 15.78125 0.046875 15.910156 0.0429688 C 15.914062 0.0390625 15.910156 0.0117188 15.910156 0 L 15.542969 0 C 15.542969 0 15.539062 0.0195312 15.542969 0.0195312 Z M 15.542969 0.0195312 "/>
<path style=" stroke:none;fill-rule:nonzero;fill:rgb(88.235295%,0.392157%,0.392157%);fill-opacity:1;" d="M 28.636719 16.679688 C 29.4375 12.722656 28.132812 8.519531 25.40625 5.601562 C 22.675781 2.683594 19.003906 1.121094 15 1.117188 C 10.996094 1.117188 7.316406 2.6875 4.582031 5.613281 C 1.851562 8.535156 0.570312 12.722656 1.363281 16.679688 C 8.890625 10.535156 21.109375 10.53125 28.636719 16.679688 Z M 28.636719 16.679688 "/>
<path style=" stroke:none;fill-rule:nonzero;fill:rgb(0%,0%,0%);fill-opacity:0.509804;" d="M 14.546875 13.21875 C 14.925781 13.21875 15.328125 13.210938 15.691406 13.195312 C 15.503906 13.175781 15.304688 13.183594 15.109375 13.175781 C 14.914062 13.167969 14.691406 13.1875 14.546875 13.21875 Z M 14.546875 13.21875 "/>
<path style=" stroke:none;fill-rule:nonzero;fill:rgb(0%,0%,0%);fill-opacity:0.529412;" d="M 30 14.082031 L 30 13.472656 C 29.972656 13.472656 29.980469 13.441406 29.976562 13.429688 C 29.976562 13.617188 29.960938 13.886719 30 14.082031 Z M 30 14.082031 "/>
<path style=" stroke:none;fill-rule:nonzero;fill:rgb(0%,0%,0%);fill-opacity:0.529412;" d="M 0 14.082031 C 0.0234375 13.898438 0.03125 13.667969 0.0429688 13.472656 C 0.0429688 13.476562 0.0117188 13.472656 0 13.472656 Z M 0 14.082031 "/>
<path style=" stroke:none;fill-rule:nonzero;fill:rgb(0%,0%,0%);fill-opacity:0.670588;" d="M 0 14.84375 C 0.0117188 14.84375 0.0234375 14.84375 0.0234375 14.84375 C 0.0195312 14.742188 0.0390625 14.613281 0 14.527344 Z M 0 14.84375 "/>
<path style=" stroke:none;fill-rule:nonzero;fill:rgb(0%,0%,0%);fill-opacity:0.611765;" d="M 30 14.90625 L 30 14.527344 C 29.964844 14.628906 29.964844 14.804688 30 14.90625 Z M 30 14.90625 "/>
<path style=" stroke:none;fill-rule:nonzero;fill:rgb(0%,0%,0%);fill-opacity:1;" d="M 12.425781 39 L 17.574219 39 C 17.574219 35.453125 17.574219 31.90625 17.574219 28.359375 C 17.933594 28.261719 18.34375 28.214844 18.695312 28.121094 C 19.050781 28.027344 19.414062 27.933594 19.757812 27.824219 C 20.097656 27.714844 20.425781 27.589844 20.753906 27.464844 C 21.082031 27.34375 21.382812 27.199219 21.695312 27.054688 C 22.003906 26.914062 22.292969 26.753906 22.582031 26.589844 C 22.871094 26.429688 23.15625 26.269531 23.425781 26.082031 C 23.695312 25.898438 23.96875 25.730469 24.226562 25.535156 C 24.484375 25.339844 24.730469 25.140625 24.972656 24.933594 C 25.21875 24.726562 25.4375 24.527344 25.664062 24.296875 C 25.894531 24.070312 26.125 23.859375 26.335938 23.621094 C 26.542969 23.382812 26.753906 23.144531 26.953125 22.894531 C 27.152344 22.644531 27.34375 22.382812 27.527344 22.121094 C 27.707031 21.863281 27.890625 21.574219 28.050781 21.304688 C 28.214844 21.035156 28.488281 20.710938 28.253906 20.453125 C 28.019531 20.199219 27.886719 19.941406 27.65625 19.707031 C 27.425781 19.46875 27.230469 19.246094 26.996094 19.019531 C 26.761719 18.792969 26.566406 18.609375 26.324219 18.40625 C 26.082031 18.207031 25.902344 18.050781 25.6875 17.898438 C 25.472656 17.742188 25.261719 17.570312 25.0625 17.445312 C 24.863281 17.316406 24.683594 17.183594 24.480469 17.0625 C 24.273438 16.945312 24.105469 16.835938 23.902344 16.726562 C 23.699219 16.621094 23.484375 16.5 23.296875 16.410156 C 23.105469 16.324219 22.933594 16.226562 22.730469 16.136719 C 22.53125 16.046875 22.339844 15.96875 22.15625 15.894531 C 21.972656 15.820312 21.742188 15.722656 21.550781 15.652344 C 21.363281 15.582031 21.136719 15.519531 20.949219 15.457031 C 20.761719 15.398438 20.515625 15.308594 20.285156 15.25 C 20.058594 15.191406 19.828125 15.125 19.589844 15.058594 C 19.351562 14.988281 19.066406 14.972656 18.835938 14.921875 C 18.609375 14.871094 18.394531 14.816406 18.132812 14.773438 C 17.871094 14.730469 17.660156 14.71875 17.351562 14.683594 C 17.042969 14.644531 16.816406 14.613281 16.472656 14.589844 C 16.128906 14.570312 15.644531 14.546875 15.257812 14.546875 C 14.875 14.550781 14.285156 14.546875 13.921875 14.566406 C 13.5625 14.582031 13.269531 14.613281 12.988281 14.652344 C 12.703125 14.691406 12.441406 14.675781 12.167969 14.722656 C 11.898438 14.769531 11.675781 14.820312 11.433594 14.859375 C 11.191406 14.902344 10.945312 14.949219 10.699219 15.007812 C 10.453125 15.066406 10.21875 15.117188 9.984375 15.1875 C 9.746094 15.253906 9.496094 15.316406 9.261719 15.390625 C 9.027344 15.464844 8.824219 15.542969 8.609375 15.617188 C 8.394531 15.691406 8.195312 15.757812 7.988281 15.855469 C 7.78125 15.953125 7.554688 16.003906 7.34375 16.097656 C 7.132812 16.191406 6.960938 16.320312 6.738281 16.410156 C 6.511719 16.503906 6.28125 16.652344 6.078125 16.757812 C 5.875 16.863281 5.691406 16.972656 5.492188 17.097656 C 5.292969 17.222656 5.105469 17.328125 4.90625 17.476562 C 4.710938 17.625 4.511719 17.730469 4.300781 17.894531 C 4.09375 18.058594 3.90625 18.21875 3.664062 18.417969 C 3.421875 18.617188 3.222656 18.804688 2.992188 19.03125 C 2.761719 19.253906 2.5625 19.484375 2.335938 19.71875 C 2.109375 19.957031 1.960938 20.210938 1.738281 20.464844 C 1.511719 20.722656 1.796875 21.050781 1.953125 21.320312 C 2.109375 21.59375 2.304688 21.871094 2.484375 22.132812 C 2.664062 22.394531 2.859375 22.65625 3.058594 22.90625 C 3.253906 23.152344 3.464844 23.394531 3.675781 23.632812 C 3.882812 23.871094 4.117188 24.082031 4.34375 24.308594 C 4.574219 24.539062 4.792969 24.734375 5.039062 24.941406 C 5.28125 25.148438 5.527344 25.347656 5.785156 25.542969 C 6.042969 25.738281 6.3125 25.910156 6.585938 26.09375 C 6.855469 26.277344 7.140625 26.4375 7.429688 26.597656 C 7.71875 26.761719 8.011719 26.921875 8.320312 27.0625 C 8.625 27.203125 8.9375 27.347656 9.261719 27.472656 C 9.589844 27.597656 9.917969 27.71875 10.257812 27.832031 C 10.601562 27.941406 10.972656 28.027344 11.328125 28.117188 C 11.679688 28.210938 12.066406 28.273438 12.425781 28.359375 C 12.425781 31.90625 12.425781 35.453125 12.425781 39 M 16.449219 27.386719 C 16.449219 30.882812 16.449219 34.382812 16.449219 37.882812 C 15.484375 37.882812 14.515625 37.882812 13.550781 37.882812 C 13.550781 34.382812 13.550781 30.882812 13.550781 27.386719 C 13.207031 27.335938 12.824219 27.300781 12.488281 27.238281 C 12.15625 27.175781 11.816406 27.101562 11.492188 27.027344 C 11.171875 26.953125 10.867188 26.847656 10.5625 26.753906 C 10.253906 26.664062 9.964844 26.554688 9.671875 26.4375 C 9.382812 26.320312 9.09375 26.203125 8.816406 26.070312 C 8.539062 25.941406 8.289062 25.800781 8.023438 25.660156 C 7.761719 25.519531 7.519531 25.367188 7.269531 25.214844 C 7.023438 25.058594 6.796875 24.890625 6.5625 24.722656 C 6.328125 24.550781 6.09375 24.378906 5.871094 24.191406 C 5.652344 24.003906 5.457031 23.820312 5.242188 23.621094 C 5.03125 23.425781 4.847656 23.230469 4.648438 23.023438 C 4.445312 22.816406 4.277344 22.609375 4.085938 22.386719 C 3.894531 22.167969 3.746094 21.933594 3.554688 21.703125 C 3.363281 21.46875 3.289062 21.226562 3.078125 20.984375 C 2.867188 20.738281 3.109375 20.503906 3.316406 20.296875 C 3.527344 20.09375 3.695312 19.894531 3.914062 19.695312 C 4.128906 19.496094 4.339844 19.3125 4.5625 19.125 C 4.785156 18.9375 5.007812 18.777344 5.238281 18.605469 C 5.472656 18.429688 5.707031 18.277344 5.957031 18.121094 C 6.207031 17.964844 6.449219 17.816406 6.710938 17.675781 C 6.976562 17.53125 7.25 17.394531 7.527344 17.265625 C 7.800781 17.136719 8.070312 17.011719 8.359375 16.898438 C 8.648438 16.78125 8.9375 16.671875 9.242188 16.574219 C 9.546875 16.476562 9.835938 16.371094 10.15625 16.285156 C 10.476562 16.199219 10.816406 16.125 11.148438 16.046875 C 11.480469 15.972656 11.816406 15.921875 12.164062 15.859375 C 12.511719 15.792969 12.882812 15.78125 13.246094 15.730469 C 13.609375 15.679688 14.011719 15.691406 14.394531 15.667969 C 14.773438 15.644531 15.203125 15.648438 15.585938 15.667969 C 15.964844 15.6875 16.371094 15.679688 16.734375 15.730469 C 17.097656 15.78125 17.464844 15.796875 17.8125 15.859375 C 18.164062 15.917969 18.5 15.96875 18.832031 16.046875 C 19.164062 16.125 19.507812 16.191406 19.828125 16.28125 C 20.144531 16.367188 20.4375 16.472656 20.742188 16.570312 C 21.046875 16.667969 21.335938 16.773438 21.625 16.890625 C 21.914062 17.007812 22.1875 17.128906 22.460938 17.257812 C 22.734375 17.386719 23.007812 17.527344 23.273438 17.667969 C 23.539062 17.8125 23.78125 17.960938 24.03125 18.113281 C 24.28125 18.265625 24.511719 18.425781 24.746094 18.597656 C 24.980469 18.765625 25.210938 18.921875 25.425781 19.113281 C 25.644531 19.308594 25.867188 19.484375 26.078125 19.683594 C 26.285156 19.886719 26.46875 20.082031 26.671875 20.285156 C 26.875 20.492188 27.136719 20.726562 26.929688 20.972656 C 26.726562 21.21875 26.644531 21.457031 26.457031 21.691406 C 26.265625 21.925781 26.109375 22.152344 25.925781 22.378906 C 25.738281 22.601562 25.558594 22.800781 25.363281 23.011719 C 25.164062 23.222656 24.976562 23.410156 24.765625 23.613281 C 24.558594 23.816406 24.363281 23.996094 24.140625 24.183594 C 23.917969 24.367188 23.683594 24.539062 23.449219 24.710938 C 23.214844 24.882812 22.992188 25.050781 22.742188 25.207031 C 22.496094 25.363281 22.25 25.507812 21.988281 25.652344 C 21.730469 25.796875 21.472656 25.929688 21.195312 26.0625 C 20.921875 26.195312 20.636719 26.316406 20.34375 26.433594 C 20.054688 26.550781 19.765625 26.65625 19.457031 26.753906 C 19.152344 26.847656 18.847656 26.945312 18.527344 27.027344 C 18.203125 27.105469 17.863281 27.167969 17.527344 27.234375 C 17.191406 27.300781 16.792969 27.335938 16.449219 27.386719 Z M 16.449219 27.386719 "/>
<path style=" stroke:none;fill-rule:nonzero;fill:rgb(0%,0%,0%);fill-opacity:0.419608;" d="M 0 15.140625 C 0.0078125 15.140625 0.0390625 15.152344 0.0429688 15.160156 C 0.046875 15.050781 0.0234375 14.953125 0.0234375 14.84375 C 0.0234375 14.84375 0.0117188 14.84375 0 14.84375 Z M 0 15.140625 "/>
<path style=" stroke:none;fill-rule:nonzero;fill:rgb(99.607843%,99.607843%,99.607843%);fill-opacity:1;" d="M 16.449219 27.386719 C 16.792969 27.335938 17.191406 27.300781 17.527344 27.234375 C 17.863281 27.167969 18.203125 27.105469 18.527344 27.027344 C 18.847656 26.945312 19.152344 26.847656 19.457031 26.753906 C 19.765625 26.65625 20.054688 26.550781 20.34375 26.433594 C 20.636719 26.316406 20.921875 26.195312 21.195312 26.0625 C 21.472656 25.929688 21.730469 25.796875 21.988281 25.652344 C 22.25 25.507812 22.496094 25.363281 22.742188 25.207031 C 22.992188 25.050781 23.214844 24.882812 23.449219 24.710938 C 23.683594 24.539062 23.917969 24.367188 24.140625 24.183594 C 24.363281 23.996094 24.558594 23.816406 24.765625 23.613281 C 24.976562 23.410156 25.164062 23.222656 25.363281 23.011719 C 25.558594 22.800781 25.738281 22.601562 25.925781 22.378906 C 26.109375 22.152344 26.265625 21.925781 26.457031 21.691406 C 26.644531 21.457031 26.726562 21.21875 26.929688 20.972656 C 27.136719 20.726562 26.875 20.492188 26.671875 20.285156 C 26.46875 20.082031 26.285156 19.886719 26.078125 19.683594 C 25.867188 19.484375 25.644531 19.308594 25.425781 19.113281 C 25.210938 18.921875 24.980469 18.765625 24.746094 18.597656 C 24.511719 18.425781 24.28125 18.265625 24.03125 18.113281 C 23.78125 17.960938 23.539062 17.8125 23.273438 17.667969 C 23.007812 17.527344 22.734375 17.386719 22.460938 17.257812 C 22.1875 17.128906 21.914062 17.007812 21.625 16.890625 C 21.335938 16.773438 21.046875 16.667969 20.742188 16.570312 C 20.4375 16.472656 20.144531 16.367188 19.828125 16.28125 C 19.507812 16.191406 19.164062 16.125 18.832031 16.046875 C 18.5 15.96875 18.164062 15.917969 17.8125 15.859375 C 17.464844 15.796875 17.097656 15.78125 16.734375 15.730469 C 16.371094 15.679688 15.964844 15.6875 15.585938 15.667969 C 15.203125 15.648438 14.773438 15.644531 14.394531 15.667969 C 14.011719 15.691406 13.609375 15.679688 13.246094 15.730469 C 12.882812 15.78125 12.511719 15.792969 12.164062 15.859375 C 11.816406 15.921875 11.480469 15.972656 11.148438 16.046875 C 10.816406 16.125 10.476562 16.199219 10.15625 16.285156 C 9.835938 16.371094 9.546875 16.476562 9.242188 16.574219 C 8.9375 16.671875 8.648438 16.78125 8.359375 16.898438 C 8.070312 17.011719 7.800781 17.136719 7.527344 17.265625 C 7.25 17.394531 6.976562 17.53125 6.710938 17.675781 C 6.449219 17.816406 6.207031 17.964844 5.957031 18.121094 C 5.707031 18.277344 5.472656 18.429688 5.238281 18.605469 C 5.007812 18.777344 4.785156 18.9375 4.5625 19.125 C 4.339844 19.3125 4.128906 19.496094 3.914062 19.695312 C 3.695312 19.894531 3.527344 20.09375 3.316406 20.296875 C 3.109375 20.503906 2.867188 20.738281 3.078125 20.984375 C 3.289062 21.226562 3.363281 21.46875 3.554688 21.703125 C 3.746094 21.933594 3.894531 22.167969 4.085938 22.386719 C 4.277344 22.609375 4.445312 22.816406 4.648438 23.023438 C 4.847656 23.230469 5.03125 23.425781 5.242188 23.621094 C 5.457031 23.820312 5.652344 24.003906 5.871094 24.191406 C 6.09375 24.378906 6.328125 24.550781 6.5625 24.722656 C 6.796875 24.890625 7.023438 25.058594 7.269531 25.214844 C 7.519531 25.367188 7.761719 25.519531 8.023438 25.660156 C 8.289062 25.800781 8.539062 25.941406 8.816406 26.070312 C 9.09375 26.203125 9.382812 26.320312 9.671875 26.4375 C 9.964844 26.554688 10.253906 26.664062 10.5625 26.753906 C 10.867188 26.847656 11.171875 26.953125 11.492188 27.027344 C 11.816406 27.101562 12.15625 27.175781 12.488281 27.238281 C 12.824219 27.300781 13.207031 27.335938 13.550781 27.386719 C 13.550781 30.882812 13.550781 34.382812 13.550781 37.882812 C 14.515625 37.882812 15.484375 37.882812 16.449219 37.882812 C 16.449219 34.382812 16.449219 30.882812 16.449219 27.386719 Z M 16.449219 27.386719 "/>
</g>
</svg>
