<?xml version="1.0" encoding="UTF-8"?>
<svg xmlns="http://www.w3.org/2000/svg" xmlns:xlink="http://www.w3.org/1999/xlink" width="30px" height="30px" viewBox="0 0 30 30" version="1.1">
<g id="surface1">
<path style=" stroke:none;fill-rule:nonzero;fill:rgb(0%,0%,0%);fill-opacity:1;" d="M 13.578125 0.0625 C 12.359375 0.183594 11.363281 0.390625 10.308594 0.742188 C 5.90625 2.199219 2.445312 5.570312 0.867188 9.933594 C 0.0234375 12.273438 -0.214844 14.910156 0.195312 17.429688 C 0.851562 21.527344 3.222656 25.199219 6.695312 27.496094 C 9.203125 29.15625 12 30 15 30 C 17.335938 30 19.546875 29.488281 21.605469 28.472656 C 25.007812 26.796875 27.601562 23.976562 28.988281 20.433594 C 29.953125 17.980469 30.238281 15.230469 29.808594 12.570312 C 29.015625 7.667969 25.8125 3.460938 21.285156 1.367188 C 19.71875 0.644531 18.214844 0.242188 16.386719 0.0585938 C 15.609375 -0.0195312 14.355469 -0.0195312 13.578125 0.0625 Z M 16.128906 1.058594 C 16.492188 1.082031 17.140625 1.164062 17.3125 1.199219 L 17.410156 1.214844 L 16.859375 1.726562 C 16.117188 2.414062 14.566406 3.949219 13.886719 4.671875 C 11.417969 7.308594 9.476562 9.8125 7.734375 12.613281 C 7.507812 12.980469 7.285156 13.332031 7.25 13.386719 C 7.175781 13.507812 7.285156 13.503906 6.285156 13.414062 C 4.367188 13.242188 3.117188 13.011719 1.332031 12.515625 C 1.28125 12.5 1.285156 12.507812 1.34375 12.585938 C 1.492188 12.769531 2.488281 13.824219 3.222656 14.570312 C 6.265625 17.652344 9.371094 20.164062 12.699219 22.234375 C 13.074219 22.464844 13.425781 22.683594 13.484375 22.726562 L 13.601562 22.796875 L 13.582031 22.992188 C 13.570312 23.101562 13.542969 23.410156 13.519531 23.6875 C 13.367188 25.375 13.078125 27.035156 12.699219 28.367188 C 12.65625 28.507812 12.628906 28.636719 12.632812 28.652344 C 12.644531 28.6875 12.945312 28.414062 13.945312 27.464844 C 16.851562 24.707031 19.417969 21.683594 21.496094 18.585938 C 21.871094 18.023438 22.628906 16.828125 22.796875 16.53125 C 22.835938 16.460938 22.882812 16.402344 22.894531 16.398438 C 22.941406 16.378906 24.171875 16.488281 24.816406 16.566406 C 25.980469 16.714844 26.914062 16.886719 27.921875 17.140625 C 28.789062 17.359375 28.800781 17.367188 28.785156 17.441406 C 28.777344 17.476562 28.730469 17.695312 28.683594 17.929688 C 28.226562 20.101562 27.171875 22.269531 25.726562 23.980469 C 25.089844 24.730469 24.464844 25.339844 23.691406 25.957031 C 21.925781 27.367188 19.804688 28.335938 17.578125 28.75 C 16.175781 29.015625 14.613281 29.054688 13.15625 28.867188 C 10.585938 28.539062 8.011719 27.40625 6.019531 25.726562 C 5.269531 25.089844 4.660156 24.460938 4.042969 23.6875 C 2.316406 21.53125 1.292969 18.929688 1.050781 16.128906 C 1.007812 15.613281 1.007812 14.339844 1.050781 13.855469 C 1.359375 10.46875 2.75 7.46875 5.113281 5.113281 C 8.03125 2.191406 11.992188 0.734375 16.128906 1.058594 Z M 17.9375 1.316406 C 22.035156 2.183594 25.582031 4.925781 27.492188 8.699219 C 28.304688 10.296875 28.78125 12 28.949219 13.886719 C 28.988281 14.359375 28.988281 15.640625 28.949219 16.113281 C 28.90625 16.574219 28.824219 17.226562 28.800781 17.289062 C 28.789062 17.324219 28.660156 17.203125 28.300781 16.808594 C 27.675781 16.121094 25.714844 14.152344 25.019531 13.515625 C 22.390625 11.089844 19.914062 9.199219 17.066406 7.445312 C 16.777344 7.265625 16.527344 7.117188 16.511719 7.109375 C 16.457031 7.09375 16.640625 5.238281 16.804688 4.1875 C 16.972656 3.097656 17.410156 1.230469 17.492188 1.230469 C 17.507812 1.230469 17.707031 1.269531 17.9375 1.316406 Z M 15.429688 11.839844 C 17.308594 12.097656 18.558594 13.945312 18.089844 15.777344 C 18.003906 16.125 17.761719 16.632812 17.554688 16.902344 C 17.375 17.144531 17 17.5 16.777344 17.644531 C 16.515625 17.820312 16.085938 18.011719 15.769531 18.097656 C 15.515625 18.164062 15.429688 18.171875 15 18.171875 C 14.570312 18.171875 14.484375 18.164062 14.222656 18.097656 C 13.871094 18.003906 13.359375 17.757812 13.097656 17.554688 C 12.859375 17.371094 12.5 17 12.355469 16.78125 C 12.171875 16.503906 11.984375 16.085938 11.910156 15.777344 C 11.40625 13.789062 12.90625 11.839844 14.960938 11.808594 C 15.09375 11.808594 15.300781 11.820312 15.429688 11.839844 Z M 15.429688 11.839844 "/>
<path style=" stroke:none;fill-rule:nonzero;fill:rgb(0%,0%,0%);fill-opacity:1;" d="M 14.671875 13.835938 C 14.195312 13.972656 13.839844 14.40625 13.808594 14.898438 C 13.773438 15.425781 14.027344 15.863281 14.492188 16.085938 C 15.308594 16.476562 16.269531 15.816406 16.191406 14.921875 C 16.167969 14.648438 16.132812 14.535156 15.988281 14.320312 C 15.855469 14.125 15.589844 13.917969 15.386719 13.855469 C 15.21875 13.804688 14.828125 13.792969 14.671875 13.835938 Z M 14.671875 13.835938 "/>
</g>
</svg>
