<?xml version="1.0" encoding="UTF-8"?>
<svg xmlns="http://www.w3.org/2000/svg" xmlns:xlink="http://www.w3.org/1999/xlink" width="30px" height="30px" viewBox="0 0 30 30" version="1.1">
<g id="surface1">
<path style=" stroke:none;fill-rule:nonzero;fill:rgb(0%,0%,0%);fill-opacity:1;" d="M 0.0390625 23.699219 C 0.816406 22.675781 1.738281 21.796875 2.507812 20.785156 C 2.910156 20.253906 3.273438 19.699219 3.589844 19.109375 C 4.652344 17.113281 5.496094 15.011719 6.425781 12.953125 C 7.132812 11.402344 7.886719 9.871094 8.839844 8.453125 C 10.421875 6.101562 12.550781 4.460938 15.304688 3.683594 C 16.636719 3.308594 17.996094 3.226562 19.375 3.320312 C 21.179688 3.441406 22.886719 3.898438 24.515625 4.671875 C 24.859375 4.835938 25.195312 5.015625 25.527344 5.203125 C 25.65625 5.277344 25.734375 5.261719 25.839844 5.160156 C 26.71875 4.300781 27.601562 3.445312 28.488281 2.59375 C 29.039062 2.0625 29.691406 2.183594 30.035156 2.882812 C 30.039062 3.058594 30.039062 3.222656 30.039062 3.40625 C 29.914062 3.707031 29.683594 3.898438 29.46875 4.105469 C 28.472656 5.066406 27.472656 6.027344 26.472656 6.988281 C 26.128906 7.316406 25.726562 7.375 25.324219 7.125 C 24.300781 6.496094 23.238281 5.957031 22.089844 5.597656 C 20.453125 5.089844 18.777344 4.921875 17.082031 5.121094 C 15.230469 5.335938 13.59375 6.082031 12.1875 7.300781 C 10.617188 8.664062 9.503906 10.339844 8.933594 12.347656 C 8.589844 13.566406 8.519531 14.816406 8.601562 16.078125 C 8.675781 17.257812 8.882812 18.410156 9.273438 19.519531 C 10.039062 21.703125 11.402344 23.390625 13.457031 24.496094 C 14.710938 25.171875 16.039062 25.59375 17.453125 25.738281 C 18.089844 25.804688 18.726562 25.71875 19.355469 25.621094 C 20.308594 25.46875 21.246094 25.253906 22.15625 24.925781 C 23.625 24.390625 24.953125 23.632812 25.980469 22.425781 C 26.847656 21.410156 27.339844 20.234375 27.550781 18.925781 C 27.875 16.886719 27.425781 15.023438 26.269531 13.339844 C 25.203125 11.789062 23.726562 10.832031 21.871094 10.503906 C 20.183594 10.203125 18.609375 10.460938 17.226562 11.535156 C 16.265625 12.28125 15.554688 13.226562 15.375 14.453125 C 15.230469 15.429688 15.320312 16.40625 15.808594 17.304688 C 15.988281 17.632812 16.238281 17.910156 16.554688 18.097656 C 17.347656 18.582031 18.203125 18.914062 19.144531 18.894531 C 20.378906 18.863281 21.300781 18.320312 21.78125 17.132812 C 21.917969 16.792969 21.878906 16.457031 21.796875 16.117188 C 21.757812 15.949219 21.617188 15.886719 21.480469 15.824219 C 21.195312 15.695312 21.003906 15.488281 20.9375 15.179688 C 20.796875 14.523438 21.394531 13.957031 22.035156 14.164062 C 22.90625 14.449219 23.402344 15.0625 23.574219 15.96875 C 23.972656 18.078125 22.234375 20.066406 20.453125 20.46875 C 19.792969 20.617188 19.121094 20.753906 18.457031 20.632812 C 17.464844 20.453125 16.503906 20.167969 15.640625 19.609375 C 14.574219 18.921875 13.984375 17.914062 13.726562 16.695312 C 13.566406 15.921875 13.503906 15.140625 13.597656 14.351562 C 13.710938 13.40625 14.074219 12.554688 14.609375 11.78125 C 15.785156 10.074219 17.398438 9.019531 19.441406 8.730469 C 22.058594 8.359375 24.402344 9.054688 26.382812 10.820312 C 28.019531 12.28125 29 14.140625 29.296875 16.296875 C 29.710938 19.273438 28.972656 21.933594 26.820312 24.109375 C 25.722656 25.21875 24.390625 25.96875 22.933594 26.511719 C 21.496094 27.050781 20.003906 27.339844 18.484375 27.535156 C 16.703125 27.761719 14.914062 27.847656 13.121094 27.804688 C 11.703125 27.773438 10.292969 27.65625 8.886719 27.457031 C 7.140625 27.207031 5.433594 26.824219 3.765625 26.253906 C 2.679688 25.882812 1.628906 25.417969 0.625 24.859375 C 0.375 24.71875 0.160156 24.554688 0.0507812 24.261719 C 0.0390625 24.074219 0.0390625 23.898438 0.0390625 23.699219 M 5.285156 24.890625 C 7.628906 25.585938 10.023438 25.917969 12.488281 26.019531 C 12.402344 25.910156 12.3125 25.875 12.230469 25.828125 C 11.246094 25.238281 10.355469 24.527344 9.617188 23.644531 C 7.992188 21.707031 7.1875 19.4375 6.910156 16.953125 C 6.894531 16.800781 6.90625 16.636719 6.808594 16.453125 C 6.226562 17.800781 5.613281 19.085938 4.925781 20.332031 C 4.230469 21.589844 3.273438 22.648438 2.304688 23.742188 C 3.277344 24.230469 4.253906 24.578125 5.285156 24.890625 Z M 5.285156 24.890625 "/>
</g>
</svg>
