<?xml version="1.0" encoding="UTF-8"?>
<svg xmlns="http://www.w3.org/2000/svg" xmlns:xlink="http://www.w3.org/1999/xlink" width="30px" height="30px" viewBox="0 0 30 30" version="1.1">
<g id="surface1">
<path style=" stroke:none;fill-rule:nonzero;fill:rgb(4.313726%,1.960784%,1.960784%);fill-opacity:1;" d="M 13.332031 0.132812 C 13.519531 0.132812 13.703125 0.132812 13.960938 0.179688 C 14.199219 0.230469 14.363281 0.238281 14.589844 0.253906 C 15.011719 0.257812 15.375 0.253906 15.78125 0.253906 C 15.929688 0.21875 16.03125 0.175781 16.132812 0.132812 C 16.277344 0.132812 16.417969 0.132812 16.628906 0.183594 C 21.554688 0.894531 25.347656 3.203125 27.953125 7.414062 C 28.898438 8.9375 29.53125 10.554688 29.886719 12.296875 C 29.933594 12.519531 30.050781 12.722656 30.132812 12.933594 C 30.132812 14.402344 30.132812 15.871094 30.082031 17.410156 C 29.984375 17.628906 29.917969 17.769531 29.886719 17.917969 C 28.605469 23.78125 25.082031 27.613281 19.394531 29.460938 C 18.464844 29.761719 17.488281 29.914062 16.535156 30.132812 C 16.433594 30.132812 16.332031 30.132812 16.160156 30.078125 C 15.433594 30.0625 14.785156 30.097656 14.132812 30.132812 C 13.90625 30.132812 13.675781 30.132812 13.382812 30.082031 C 13.148438 29.984375 12.980469 29.921875 12.808594 29.894531 C 6.507812 28.902344 1.609375 24.199219 0.382812 17.96875 C 0.339844 17.75 0.21875 17.546875 0.132812 17.332031 C 0.132812 15.953125 0.132812 14.570312 0.183594 13.109375 C 0.246094 12.964844 0.265625 12.902344 0.277344 12.835938 C 1.472656 6.355469 5.953125 1.742188 12.320312 0.4375 C 12.664062 0.367188 12.996094 0.234375 13.332031 0.132812 M 6.847656 13.980469 C 6.855469 13.96875 6.875 13.949219 6.875 13.941406 C 6.863281 13.914062 6.84375 13.890625 6.820312 13.773438 C 6.835938 13.710938 6.851562 13.652344 6.933594 13.539062 C 7.113281 12.988281 7.292969 12.4375 7.539062 11.820312 C 8.25 10.160156 9.5 9.007812 11.0625 8.195312 C 14 6.667969 17.34375 6.535156 19.929688 8.707031 C 22.59375 10.933594 24.148438 15.316406 21.53125 18.835938 C 20.324219 20.460938 18.132812 21.351562 16.382812 20.855469 C 13.75 20.109375 12.410156 17.023438 14.148438 14.054688 C 14.386719 13.652344 14.816406 13.515625 15.253906 13.765625 C 15.695312 14.023438 15.816406 14.414062 15.605469 14.90625 C 15.441406 15.292969 15.277344 15.683594 15.167969 16.085938 C 14.828125 17.328125 15.378906 18.523438 16.53125 19.085938 C 17.582031 19.605469 19.226562 19.070312 20.113281 17.902344 C 21.851562 15.617188 21.394531 12.839844 19.503906 10.652344 C 16.371094 7.035156 10.78125 9.210938 9.269531 12.140625 C 7.554688 15.464844 8.027344 18.726562 9.984375 21.738281 C 12.089844 24.976562 15.308594 26.449219 19.082031 26.761719 C 20.25 26.859375 21.480469 26.90625 22.5 26.191406 C 26.125 23.65625 28.089844 20.160156 28.382812 15.738281 C 28.492188 14.050781 28.148438 12.429688 27.71875 10.761719 C 27.710938 10.730469 27.691406 10.703125 27.625 10.605469 C 27.609375 10.550781 27.597656 10.496094 27.578125 10.375 C 27.566406 10.332031 27.539062 10.296875 27.464844 10.203125 C 27.460938 10.148438 27.453125 10.097656 27.457031 9.953125 C 27.410156 9.882812 27.367188 9.8125 27.253906 9.6875 C 27.1875 9.53125 27.125 9.371094 27.058594 9.128906 C 27.015625 9.0625 26.96875 8.996094 26.902344 8.90625 C 26.902344 8.90625 26.917969 8.875 26.90625 8.792969 C 26.867188 8.75 26.832031 8.710938 26.800781 8.667969 C 26.800781 8.667969 26.796875 8.671875 26.792969 8.589844 C 26.742188 8.527344 26.6875 8.46875 26.652344 8.40625 C 26.652344 8.40625 26.652344 8.425781 26.636719 8.355469 C 26.601562 8.328125 26.566406 8.300781 26.53125 8.265625 C 26.53125 8.265625 26.527344 8.269531 26.546875 8.179688 C 26.632812 8.027344 26.714844 7.878906 26.851562 7.636719 C 26.550781 7.679688 26.367188 7.707031 26.121094 7.664062 C 26.035156 7.539062 25.953125 7.40625 25.863281 7.285156 C 21.980469 2.050781 15.246094 0.40625 9.71875 3 C 4.90625 5.257812 2.292969 9.132812 1.898438 14.417969 C 1.492188 19.855469 4.960938 25.363281 9.863281 27.308594 C 11.660156 28.019531 13.433594 28.414062 15.324219 28.445312 C 15.761719 28.449219 16.203125 28.386719 16.640625 28.355469 C 16.652344 28.292969 16.664062 28.226562 16.675781 28.160156 C 13.929688 27.480469 11.574219 26.136719 9.585938 24.042969 C 9.28125 23.671875 8.972656 23.304688 8.667969 22.933594 C 8.667969 22.933594 8.667969 22.933594 8.652344 22.84375 C 8.480469 22.601562 8.3125 22.359375 8.121094 22.027344 C 7.796875 21.203125 7.472656 20.375 7.15625 19.445312 C 7.078125 19.230469 6.996094 19.011719 6.894531 18.730469 C 6.894531 18.683594 6.894531 18.636719 6.917969 18.5 C 6.882812 18.421875 6.847656 18.34375 6.800781 18.261719 C 6.800781 18.261719 6.808594 18.253906 6.8125 18.175781 C 6.792969 18.082031 6.773438 17.984375 6.71875 17.792969 C 6.714844 17.726562 6.710938 17.660156 6.765625 17.507812 C 6.75 16.519531 6.730469 15.53125 6.710938 14.4375 C 6.730469 14.375 6.746094 14.308594 6.792969 14.1875 C 6.796875 14.128906 6.796875 14.066406 6.800781 14 C 6.800781 14 6.800781 14 6.847656 13.980469 M 28.667969 17.898438 C 28.695312 17.605469 28.722656 17.316406 28.75 17.023438 C 28.695312 17.019531 28.644531 17.015625 28.589844 17.015625 C 28.527344 17.332031 28.464844 17.652344 28.40625 17.96875 C 28.492188 17.980469 28.578125 17.988281 28.667969 17.898438 Z M 28.667969 17.898438 "/>
<path style=" stroke:none;fill-rule:nonzero;fill:rgb(98.823529%,98.823529%,98.823529%);fill-opacity:1;" d="M 30.132812 12.871094 C 30.050781 12.722656 29.933594 12.519531 29.886719 12.296875 C 29.53125 10.554688 28.898438 8.9375 27.953125 7.414062 C 25.347656 3.203125 21.554688 0.894531 16.683594 0.183594 C 21.144531 0.132812 25.625 0.132812 30.132812 0.132812 C 30.132812 4.359375 30.132812 8.582031 30.132812 12.871094 Z M 30.132812 12.871094 "/>
<path style=" stroke:none;fill-rule:nonzero;fill:rgb(98.823529%,98.823529%,98.823529%);fill-opacity:1;" d="M 16.597656 30.132812 C 17.488281 29.914062 18.464844 29.761719 19.394531 29.460938 C 25.082031 27.613281 28.605469 23.78125 29.886719 17.917969 C 29.917969 17.769531 29.984375 17.628906 30.082031 17.472656 C 30.132812 21.679688 30.132812 25.890625 30.132812 30.132812 C 25.640625 30.132812 21.148438 30.132812 16.597656 30.132812 Z M 16.597656 30.132812 "/>
<path style=" stroke:none;fill-rule:nonzero;fill:rgb(98.823529%,98.823529%,98.823529%);fill-opacity:1;" d="M 0.132812 17.394531 C 0.21875 17.546875 0.339844 17.75 0.382812 17.96875 C 1.609375 24.199219 6.507812 28.902344 12.808594 29.894531 C 12.980469 29.921875 13.148438 29.984375 13.324219 30.082031 C 8.941406 30.132812 4.554688 30.132812 0.132812 30.132812 C 0.132812 25.910156 0.132812 21.683594 0.132812 17.394531 Z M 0.132812 17.394531 "/>
<path style=" stroke:none;fill-rule:nonzero;fill:rgb(98.823529%,98.823529%,98.823529%);fill-opacity:1;" d="M 13.269531 0.132812 C 12.996094 0.234375 12.664062 0.367188 12.320312 0.4375 C 5.953125 1.742188 1.472656 6.355469 0.277344 12.835938 C 0.265625 12.902344 0.246094 12.964844 0.183594 13.046875 C 0.132812 8.765625 0.132812 4.464844 0.132812 0.132812 C 4.492188 0.132812 8.851562 0.132812 13.269531 0.132812 Z M 13.269531 0.132812 "/>
<path style=" stroke:none;fill-rule:nonzero;fill:rgb(51.764709%,51.764709%,51.764709%);fill-opacity:1;" d="M 15.734375 0.246094 C 15.375 0.253906 15.011719 0.257812 14.589844 0.226562 C 14.53125 0.1875 14.535156 0.132812 14.535156 0.132812 C 14.894531 0.132812 15.253906 0.132812 15.671875 0.160156 C 15.734375 0.191406 15.734375 0.246094 15.734375 0.246094 Z M 15.734375 0.246094 "/>
<path style=" stroke:none;fill-rule:nonzero;fill:rgb(63.137257%,63.137257%,63.137257%);fill-opacity:1;" d="M 14.480469 0.132812 C 14.535156 0.132812 14.53125 0.1875 14.53125 0.214844 C 14.363281 0.238281 14.199219 0.230469 14.019531 0.179688 C 14.140625 0.132812 14.285156 0.132812 14.480469 0.132812 Z M 14.480469 0.132812 "/>
<path style=" stroke:none;fill-rule:nonzero;fill:rgb(58.039218%,58.039218%,58.039218%);fill-opacity:1;" d="M 15.78125 0.253906 C 15.734375 0.246094 15.734375 0.191406 15.734375 0.160156 C 15.832031 0.132812 15.933594 0.132812 16.082031 0.132812 C 16.03125 0.175781 15.929688 0.21875 15.78125 0.253906 Z M 15.78125 0.253906 "/>
<path style=" stroke:none;fill-rule:nonzero;fill:rgb(91.764706%,5.490196%,6.27451%);fill-opacity:1;" d="M 6.765625 14.242188 C 6.746094 14.308594 6.730469 14.375 6.679688 14.535156 C 6.671875 15.621094 6.691406 16.605469 6.707031 17.59375 C 6.710938 17.660156 6.714844 17.726562 6.714844 17.875 C 6.746094 18.058594 6.777344 18.15625 6.808594 18.253906 C 6.808594 18.253906 6.800781 18.261719 6.804688 18.308594 C 6.835938 18.429688 6.867188 18.511719 6.894531 18.59375 C 6.894531 18.636719 6.894531 18.683594 6.894531 18.800781 C 6.976562 19.09375 7.0625 19.324219 7.148438 19.550781 C 7.472656 20.375 7.796875 21.203125 8.128906 22.121094 C 8.3125 22.457031 8.488281 22.695312 8.667969 22.933594 C 8.667969 22.933594 8.667969 22.933594 8.664062 22.980469 C 8.976562 23.398438 9.292969 23.765625 9.609375 24.132812 C 11.574219 26.136719 13.929688 27.480469 16.675781 28.160156 C 16.664062 28.226562 16.652344 28.292969 16.640625 28.355469 C 16.203125 28.386719 15.761719 28.449219 15.324219 28.445312 C 13.433594 28.414062 11.660156 28.019531 9.863281 27.308594 C 4.960938 25.363281 1.492188 19.855469 1.898438 14.417969 C 2.292969 9.132812 4.90625 5.257812 9.71875 3 C 15.246094 0.40625 21.980469 2.050781 25.863281 7.285156 C 25.953125 7.40625 26.035156 7.539062 26.164062 7.738281 C 26.3125 7.960938 26.421875 8.117188 26.527344 8.269531 C 26.527344 8.269531 26.53125 8.265625 26.539062 8.304688 C 26.578125 8.371094 26.617188 8.398438 26.652344 8.425781 C 26.652344 8.425781 26.652344 8.40625 26.648438 8.449219 C 26.695312 8.550781 26.746094 8.613281 26.796875 8.671875 C 26.796875 8.671875 26.800781 8.667969 26.808594 8.707031 C 26.847656 8.792969 26.882812 8.832031 26.917969 8.875 C 26.917969 8.875 26.902344 8.90625 26.914062 8.960938 C 26.972656 9.082031 27.015625 9.148438 27.0625 9.214844 C 27.125 9.371094 27.1875 9.53125 27.289062 9.757812 C 27.367188 9.898438 27.410156 9.972656 27.449219 10.046875 C 27.453125 10.097656 27.460938 10.148438 27.484375 10.273438 C 27.527344 10.375 27.558594 10.40625 27.585938 10.441406 C 27.597656 10.496094 27.609375 10.550781 27.636719 10.671875 C 27.664062 10.773438 27.6875 10.800781 27.726562 10.8125 C 28.148438 12.429688 28.492188 14.050781 28.382812 15.738281 C 28.089844 20.160156 26.125 23.65625 22.5 26.191406 C 21.480469 26.90625 20.25 26.859375 19.082031 26.761719 C 15.308594 26.449219 12.089844 24.976562 9.984375 21.738281 C 8.027344 18.726562 7.554688 15.464844 9.269531 12.140625 C 10.78125 9.210938 16.371094 7.035156 19.503906 10.652344 C 21.394531 12.839844 21.851562 15.617188 20.113281 17.902344 C 19.226562 19.070312 17.582031 19.605469 16.53125 19.085938 C 15.378906 18.523438 14.828125 17.328125 15.167969 16.085938 C 15.277344 15.683594 15.441406 15.292969 15.605469 14.90625 C 15.816406 14.414062 15.695312 14.023438 15.253906 13.765625 C 14.816406 13.515625 14.386719 13.652344 14.148438 14.054688 C 12.410156 17.023438 13.75 20.109375 16.382812 20.855469 C 18.132812 21.351562 20.324219 20.460938 21.53125 18.835938 C 24.148438 15.316406 22.59375 10.933594 19.929688 8.707031 C 17.34375 6.535156 14 6.667969 11.0625 8.195312 C 9.5 9.007812 8.25 10.160156 7.46875 11.878906 C 7.222656 12.492188 7.046875 13.042969 6.867188 13.59375 C 6.851562 13.652344 6.835938 13.710938 6.808594 13.851562 C 6.800781 13.953125 6.800781 13.976562 6.800781 14 C 6.800781 14 6.800781 14 6.773438 14.027344 C 6.753906 14.113281 6.757812 14.179688 6.765625 14.242188 Z M 6.765625 14.242188 "/>
<path style=" stroke:none;fill-rule:nonzero;fill:rgb(20.392157%,3.529412%,3.529412%);fill-opacity:1;" d="M 6.738281 17.550781 C 6.691406 16.605469 6.671875 15.621094 6.683594 14.585938 C 6.730469 15.53125 6.75 16.519531 6.738281 17.550781 Z M 6.738281 17.550781 "/>
<path style=" stroke:none;fill-rule:nonzero;fill:rgb(78.039217%,9.411765%,13.333334%);fill-opacity:1;" d="M 9.597656 24.089844 C 9.292969 23.765625 8.976562 23.398438 8.664062 22.980469 C 8.972656 23.304688 9.28125 23.671875 9.597656 24.089844 Z M 9.597656 24.089844 "/>
<path style=" stroke:none;fill-rule:nonzero;fill:rgb(20.392157%,3.529412%,3.529412%);fill-opacity:1;" d="M 6.902344 13.566406 C 7.046875 13.042969 7.222656 12.492188 7.4375 11.914062 C 7.292969 12.4375 7.113281 12.988281 6.902344 13.566406 Z M 6.902344 13.566406 "/>
<path style=" stroke:none;fill-rule:nonzero;fill:rgb(3.921569%,0.784314%,4.313726%);fill-opacity:1;" d="M 28.664062 17.949219 C 28.578125 17.988281 28.492188 17.980469 28.40625 17.96875 C 28.464844 17.652344 28.527344 17.332031 28.589844 17.015625 C 28.644531 17.015625 28.695312 17.019531 28.75 17.023438 C 28.722656 17.316406 28.695312 17.605469 28.664062 17.949219 Z M 28.664062 17.949219 "/>
<path style=" stroke:none;fill-rule:nonzero;fill:rgb(6.666667%,1.960784%,1.960784%);fill-opacity:1;" d="M 26.539062 8.222656 C 26.421875 8.117188 26.3125 7.960938 26.195312 7.769531 C 26.367188 7.707031 26.550781 7.679688 26.851562 7.636719 C 26.714844 7.878906 26.632812 8.027344 26.539062 8.222656 Z M 26.539062 8.222656 "/>
<path style=" stroke:none;fill-rule:nonzero;fill:rgb(78.039217%,9.411765%,13.333334%);fill-opacity:1;" d="M 8.660156 22.890625 C 8.488281 22.695312 8.3125 22.457031 8.136719 22.167969 C 8.3125 22.359375 8.480469 22.601562 8.660156 22.890625 Z M 8.660156 22.890625 "/>
<path style=" stroke:none;fill-rule:nonzero;fill:rgb(20.392157%,3.529412%,3.529412%);fill-opacity:1;" d="M 7.152344 19.496094 C 7.0625 19.324219 6.976562 19.09375 6.90625 18.832031 C 6.996094 19.011719 7.078125 19.230469 7.152344 19.496094 Z M 7.152344 19.496094 "/>
<path style=" stroke:none;fill-rule:nonzero;fill:rgb(20.392157%,3.529412%,3.529412%);fill-opacity:1;" d="M 6.808594 18.214844 C 6.777344 18.15625 6.746094 18.058594 6.734375 17.921875 C 6.773438 17.984375 6.792969 18.082031 6.808594 18.214844 Z M 6.808594 18.214844 "/>
<path style=" stroke:none;fill-rule:nonzero;fill:rgb(6.666667%,1.960784%,1.960784%);fill-opacity:1;" d="M 27.453125 10 C 27.410156 9.972656 27.367188 9.898438 27.324219 9.78125 C 27.367188 9.8125 27.410156 9.882812 27.453125 10 Z M 27.453125 10 "/>
<path style=" stroke:none;fill-rule:nonzero;fill:rgb(20.392157%,3.529412%,3.529412%);fill-opacity:1;" d="M 6.90625 18.546875 C 6.867188 18.511719 6.835938 18.429688 6.808594 18.308594 C 6.847656 18.34375 6.882812 18.421875 6.90625 18.546875 Z M 6.90625 18.546875 "/>
<path style=" stroke:none;fill-rule:nonzero;fill:rgb(6.666667%,1.960784%,1.960784%);fill-opacity:1;" d="M 26.792969 8.628906 C 26.746094 8.613281 26.695312 8.550781 26.640625 8.453125 C 26.6875 8.46875 26.742188 8.527344 26.792969 8.628906 Z M 26.792969 8.628906 "/>
<path style=" stroke:none;fill-rule:nonzero;fill:rgb(20.392157%,3.529412%,3.529412%);fill-opacity:1;" d="M 6.777344 14.214844 C 6.757812 14.179688 6.753906 14.113281 6.773438 14.027344 C 6.796875 14.066406 6.796875 14.128906 6.777344 14.214844 Z M 6.777344 14.214844 "/>
<path style=" stroke:none;fill-rule:nonzero;fill:rgb(6.666667%,1.960784%,1.960784%);fill-opacity:1;" d="M 27.058594 9.171875 C 27.015625 9.148438 26.972656 9.082031 26.929688 8.972656 C 26.96875 8.996094 27.015625 9.0625 27.058594 9.171875 Z M 27.058594 9.171875 "/>
<path style=" stroke:none;fill-rule:nonzero;fill:rgb(6.666667%,1.960784%,1.960784%);fill-opacity:1;" d="M 26.644531 8.390625 C 26.617188 8.398438 26.578125 8.371094 26.535156 8.304688 C 26.566406 8.300781 26.601562 8.328125 26.644531 8.390625 Z M 26.644531 8.390625 "/>
<path style=" stroke:none;fill-rule:nonzero;fill:rgb(20.392157%,3.529412%,3.529412%);fill-opacity:1;" d="M 6.824219 13.988281 C 6.800781 13.976562 6.800781 13.953125 6.8125 13.898438 C 6.84375 13.890625 6.863281 13.914062 6.875 13.941406 C 6.875 13.949219 6.855469 13.96875 6.824219 13.988281 Z M 6.824219 13.988281 "/>
<path style=" stroke:none;fill-rule:nonzero;fill:rgb(6.666667%,1.960784%,1.960784%);fill-opacity:1;" d="M 26.910156 8.832031 C 26.882812 8.832031 26.847656 8.792969 26.804688 8.710938 C 26.832031 8.710938 26.867188 8.75 26.910156 8.832031 Z M 26.910156 8.832031 "/>
<path style=" stroke:none;fill-rule:nonzero;fill:rgb(6.666667%,1.960784%,1.960784%);fill-opacity:1;" d="M 27.722656 10.789062 C 27.6875 10.800781 27.664062 10.773438 27.660156 10.707031 C 27.691406 10.703125 27.710938 10.730469 27.722656 10.789062 Z M 27.722656 10.789062 "/>
<path style=" stroke:none;fill-rule:nonzero;fill:rgb(6.666667%,1.960784%,1.960784%);fill-opacity:1;" d="M 27.582031 10.40625 C 27.558594 10.40625 27.527344 10.375 27.5 10.308594 C 27.539062 10.296875 27.566406 10.332031 27.582031 10.40625 Z M 27.582031 10.40625 "/>
</g>
</svg>
