<?xml version="1.0" encoding="UTF-8"?>
<svg xmlns="http://www.w3.org/2000/svg" xmlns:xlink="http://www.w3.org/1999/xlink" width="63px" height="63px" viewBox="0 0 63 63" version="1.1">
<g id="surface1">
<path style=" stroke:none;fill-rule:nonzero;fill:rgb(0%,0%,0%);fill-opacity:1;" d="M 7.28125 5.542969 L 6.683594 5.566406 L 6.652344 6.300781 C 6.613281 7.222656 6.585938 26.339844 6.605469 43.53125 L 6.617188 56.617188 L 57.726562 56.617188 L 57.722656 31.851562 C 57.714844 18.234375 57.699219 6.742188 57.675781 6.3125 L 57.644531 5.535156 L 32.757812 5.535156 C 19.070312 5.527344 7.601562 5.539062 7.28125 5.542969 Z M 30.632812 11.050781 C 31.066406 11.296875 31.972656 11.996094 32.222656 12.28125 C 32.285156 12.347656 32.351562 12.402344 32.382812 12.402344 C 32.410156 12.402344 32.65625 12.191406 32.929688 11.929688 C 33.429688 11.457031 33.847656 11.207031 34.496094 10.988281 C 34.855469 10.867188 36.136719 10.867188 36.761719 10.988281 C 38.210938 11.261719 39.597656 12.105469 40.242188 13.109375 C 40.648438 13.738281 40.777344 14.003906 40.976562 14.625 C 41.277344 15.582031 41.347656 16.023438 41.347656 16.960938 C 41.34375 18.003906 41.226562 18.554688 40.84375 19.34375 C 40.625 19.792969 40.519531 19.925781 39.96875 20.484375 C 39.628906 20.820312 38.847656 21.507812 38.234375 21.996094 C 36.816406 23.128906 36.628906 23.359375 35.953125 24.691406 C 34.71875 27.152344 34.402344 28.128906 34.886719 28.007812 C 35.148438 27.945312 37.441406 26.070312 38.296875 25.222656 C 38.863281 24.652344 39.085938 24.277344 39.765625 22.691406 C 40.324219 21.378906 41.042969 20.234375 41.695312 19.625 C 42.324219 19.042969 43.246094 18.503906 43.945312 18.332031 C 45.257812 17.996094 46.515625 18.136719 48.132812 18.792969 C 49.335938 19.285156 50.179688 20.105469 50.859375 21.457031 C 51.191406 22.117188 51.277344 22.429688 51.277344 23.058594 C 51.277344 23.886719 51.015625 24.699219 50.488281 25.515625 C 50.363281 25.703125 50.269531 25.871094 50.28125 25.882812 C 50.292969 25.886719 50.625 26.066406 51.027344 26.273438 C 51.421875 26.484375 51.855469 26.726562 51.988281 26.816406 C 52.460938 27.140625 53.015625 28.0625 53.171875 28.78125 C 53.21875 28.980469 53.246094 29.441406 53.238281 29.921875 C 53.238281 30.621094 53.21875 30.792969 53.089844 31.226562 C 52.667969 32.652344 51.539062 34.253906 50.46875 34.941406 C 49.179688 35.769531 47.832031 36.15625 46.847656 35.988281 C 46.1875 35.871094 44.746094 35.257812 43.679688 34.640625 C 41.320312 33.28125 41.316406 33.273438 39.011719 33.007812 C 38.339844 32.929688 37.683594 32.851562 37.554688 32.835938 C 37.234375 32.796875 36.777344 32.867188 36.640625 32.980469 C 36.476562 33.105469 36.554688 33.234375 37.027344 33.613281 C 37.59375 34.070312 39.476562 35.214844 40.320312 35.625 C 40.835938 35.875 41.683594 36.027344 43.269531 36.148438 C 44.804688 36.273438 45.542969 36.425781 46.445312 36.816406 C 47.777344 37.394531 48.296875 37.863281 48.867188 39.011719 C 49.53125 40.332031 49.800781 41.792969 49.585938 42.875 C 49.390625 43.835938 48.734375 45.003906 47.882812 45.898438 C 47.132812 46.695312 46.515625 47.003906 45.382812 47.167969 C 44.851562 47.246094 44.300781 47.1875 43.824219 47.023438 C 43.550781 46.925781 43.523438 46.960938 43.441406 47.449219 C 43.195312 48.875 42.574219 49.820312 41.320312 50.664062 C 40.832031 51 40.308594 51.203125 39.875 51.242188 C 39.675781 51.261719 38.964844 51.253906 38.289062 51.226562 C 37.121094 51.183594 37.042969 51.175781 36.539062 51.003906 C 35.164062 50.535156 34.164062 49.78125 33.386719 48.628906 C 33.089844 48.179688 33.039062 48.0625 32.867188 47.382812 C 32.683594 46.683594 32.671875 46.578125 32.679688 45.828125 C 32.691406 44.996094 32.71875 44.804688 33.085938 43.058594 C 33.40625 41.515625 33.425781 40.644531 33.167969 39.101562 C 32.941406 37.730469 32.601562 36.582031 32.328125 36.253906 L 32.183594 36.089844 L 32.046875 36.214844 C 31.777344 36.464844 31.460938 37.304688 31.117188 38.730469 C 30.726562 40.292969 30.742188 41.28125 31.175781 43.378906 L 31.433594 44.628906 L 31.40625 45.554688 C 31.371094 46.558594 31.238281 47.34375 31.011719 47.929688 C 30.375 49.535156 28.359375 50.960938 26.332031 51.226562 C 25.671875 51.308594 24.324219 51.261719 23.914062 51.136719 C 22.859375 50.808594 21.699219 49.863281 21.273438 48.96875 C 21.082031 48.578125 20.746094 47.429688 20.746094 47.171875 C 20.746094 46.984375 20.609375 46.964844 20.164062 47.082031 C 19.359375 47.300781 18.273438 47.175781 17.5 46.792969 C 16.902344 46.488281 16.0625 45.671875 15.460938 44.804688 C 15.214844 44.441406 14.820312 43.589844 14.703125 43.15625 C 14.554688 42.613281 14.566406 41.339844 14.726562 40.714844 C 14.988281 39.71875 15.5625 38.511719 15.957031 38.136719 C 16.273438 37.828125 16.878906 37.449219 17.65625 37.066406 C 19.035156 36.394531 19.636719 36.238281 21.210938 36.121094 C 22.53125 36.019531 22.917969 35.972656 23.359375 35.832031 C 23.730469 35.714844 24.582031 35.289062 25.332031 34.832031 C 25.636719 34.648438 26.195312 34.3125 26.574219 34.089844 C 27.65625 33.453125 27.886719 33.164062 27.40625 33.03125 C 26.980469 32.917969 24.410156 33.105469 23.324219 33.335938 C 22.539062 33.503906 22.246094 33.628906 21.328125 34.226562 C 20.089844 35.019531 19.015625 35.5 18.035156 35.683594 C 17.433594 35.792969 16.257812 35.765625 15.628906 35.617188 C 14.875 35.441406 13.324219 34.5625 12.808594 34.023438 C 12.175781 33.363281 11.472656 32.144531 11.199219 31.226562 C 11.066406 30.789062 11.050781 30.632812 11.046875 29.949219 C 11.046875 28.863281 11.21875 28.167969 11.667969 27.429688 C 11.824219 27.167969 12.039062 26.949219 12.601562 26.488281 C 13.003906 26.160156 13.398438 25.839844 13.480469 25.777344 L 13.632812 25.667969 L 13.363281 24.941406 L 13.101562 24.21875 L 13.097656 23.21875 C 13.097656 22.25 13.101562 22.207031 13.257812 21.777344 C 13.597656 20.851562 14.582031 19.675781 15.65625 18.914062 C 16.722656 18.164062 17.078125 18.058594 18.660156 18.050781 C 20.289062 18.050781 21.1875 18.253906 22.105469 18.820312 C 23.085938 19.433594 23.523438 20.117188 24.355469 22.300781 C 24.546875 22.808594 24.863281 23.558594 25.066406 23.96875 L 25.425781 24.71875 L 26.378906 25.667969 C 27.546875 26.824219 28.53125 27.722656 28.898438 27.964844 C 29.082031 28.089844 29.21875 28.140625 29.335938 28.128906 C 29.496094 28.113281 29.503906 28.109375 29.503906 27.808594 C 29.503906 27.636719 29.441406 27.328125 29.371094 27.113281 C 29.203125 26.613281 28.582031 25.226562 28.050781 24.179688 C 27.65625 23.402344 27.613281 23.347656 27.101562 22.847656 C 26.429688 22.207031 25.253906 20.996094 24.859375 20.550781 C 23.824219 19.375 23.300781 18.0625 23.300781 16.667969 C 23.308594 14.460938 24.542969 12.46875 26.722656 11.152344 C 27.273438 10.824219 27.414062 10.792969 28.859375 10.792969 L 30.160156 10.789062 Z M 30.632812 11.050781 "/>
</g>
</svg>
